<svg xmlns="http://www.w3.org/2000/svg" viewBox="0 0 1200 800" role="img" aria-labelledby="title desc">
  <title id="title">Connected maintenance map mockup</title>
  <desc id="desc">A spatial maintenance interface with asset markers and issue panels.</desc>
  <rect width="1200" height="800" rx="28" fill="#2c383a"/>
  <rect x="120" y="94" width="960" height="556" rx="28" fill="#121819"/>
  <path d="M190 188c132 36 242-22 358 30 104 47 172 12 276-42 58-30 118-38 190-18v400H190z" fill="#1d3033"/>
  <path d="M198 508c148-96 262-104 384-44 116 57 214 37 424-86" fill="none" stroke="#6fdce7" stroke-width="18" stroke-linecap="round" opacity=".72"/>
  <g fill="#e35da8">
    <circle cx="346" cy="438" r="26"/>
    <circle cx="616" cy="414" r="20"/>
    <circle cx="882" cy="334" r="24"/>
  </g>
  <rect x="754" y="170" width="250" height="198" rx="20" fill="#eef6f8"/>
  <rect x="786" y="214" width="148" height="18" rx="9" fill="#2d879a"/>
  <path d="M786 274h178M786 320h120" stroke="#8aa1ad" stroke-width="14" stroke-linecap="round"/>
</svg>
