<svg xmlns="http://www.w3.org/2000/svg" viewBox="0 0 1200 800" role="img" aria-labelledby="title desc">
  <title id="title">Studio portfolio identity mockup</title>
  <desc id="desc">An editorial identity exploration with interface blocks and a hand-drawn line.</desc>
  <rect width="1200" height="800" rx="28" fill="#303637"/>
  <rect x="120" y="116" width="960" height="520" rx="28" fill="#171c1e"/>
  <rect x="168" y="168" width="330" height="390" rx="20" fill="#24333a"/>
  <rect x="540" y="168" width="492" height="180" rx="20" fill="#2d5364"/>
  <rect x="540" y="390" width="492" height="168" rx="20" fill="#5a2d52"/>
  <path d="M206 306c50-132 116-32 72 42-42 70-102 12-46-58 70-88 172 10 110 82-44 52-100 18-64-34 40-58 114-4 154 30 58 50 116 40 172-16" fill="none" stroke="#d7d1e9" stroke-width="10" stroke-linecap="round"/>
  <path d="M596 246h278M596 478h318" stroke="#f3f7f7" stroke-width="18" stroke-linecap="round"/>
  <circle cx="948" cy="248" r="34" fill="#54d8e8"/>
  <circle cx="948" cy="478" r="34" fill="#e35da8"/>
</svg>
