<svg xmlns="http://www.w3.org/2000/svg" viewBox="0 0 1200 800" role="img" aria-labelledby="title desc">
  <title id="title">Factory service console mockup</title>
  <desc id="desc">A field service tablet interface for diagnostics and maintenance.</desc>
  <rect width="1200" height="800" rx="28" fill="#16363b"/>
  <rect x="138" y="112" width="924" height="530" rx="34" fill="#12191b"/>
  <rect x="184" y="162" width="338" height="428" rx="20" fill="#203338"/>
  <rect x="558" y="162" width="458" height="198" rx="20" fill="#203338"/>
  <rect x="558" y="392" width="458" height="198" rx="20" fill="#203338"/>
  <g fill="#63d7d9">
    <rect x="224" y="210" width="170" height="18" rx="9"/>
    <rect x="224" y="268" width="232" height="70" rx="18"/>
    <rect x="598" y="210" width="280" height="18" rx="9"/>
    <rect x="598" y="442" width="220" height="18" rx="9"/>
  </g>
  <path d="M230 505h244M620 298h300M620 530h318" stroke="#d5eef0" stroke-width="16" stroke-linecap="round" opacity=".68"/>
  <path d="M666 314l76-58 64 68 88-108" fill="none" stroke="#e35da8" stroke-width="16" stroke-linecap="round" stroke-linejoin="round"/>
</svg>
