<svg xmlns="http://www.w3.org/2000/svg" viewBox="0 0 1200 800" role="img" aria-labelledby="title desc">
  <title id="title">Inspection planning toolkit mockup</title>
  <desc id="desc">A planning board with inspection checklists and follow-up status.</desc>
  <rect width="1200" height="800" rx="28" fill="#23364a"/>
  <rect x="142" y="108" width="916" height="536" rx="26" fill="#eef6f8"/>
  <rect x="190" y="174" width="208" height="392" rx="20" fill="#dce8ee"/>
  <rect x="440" y="174" width="208" height="392" rx="20" fill="#dce8ee"/>
  <rect x="690" y="174" width="318" height="392" rx="20" fill="#dce8ee"/>
  <g fill="#347fc4">
    <rect x="222" y="218" width="118" height="18" rx="9"/>
    <rect x="472" y="218" width="118" height="18" rx="9"/>
    <rect x="722" y="218" width="160" height="18" rx="9"/>
  </g>
  <path d="M232 308h114M232 358h84M232 408h128M482 308h114M482 358h84M482 408h128M734 316h210M734 372h166M734 428h224" stroke="#8aa1ad" stroke-width="16" stroke-linecap="round"/>
  <circle cx="366" cy="306" r="16" fill="#64d5e4"/>
  <circle cx="616" cy="406" r="16" fill="#e35da8"/>
</svg>
