<svg xmlns="http://www.w3.org/2000/svg" viewBox="0 0 1200 800" role="img" aria-labelledby="title desc">
  <title id="title">Clinical trial discovery mockup</title>
  <desc id="desc">A patient-facing clinical trial search interface shown on a laptop screen.</desc>
  <defs>
    <linearGradient id="bg" x1="0" x2="1" y1="0" y2="1">
      <stop stop-color="#21333a"/>
      <stop offset=".55" stop-color="#215f77"/>
      <stop offset="1" stop-color="#7b2e67"/>
    </linearGradient>
  </defs>
  <rect width="1200" height="800" rx="28" fill="url(#bg)"/>
  <rect x="188" y="140" width="824" height="450" rx="24" fill="#fbfdfd"/>
  <rect x="188" y="140" width="824" height="54" rx="24" fill="#f3f6f6"/>
  <circle cx="230" cy="168" r="8" fill="#ff7f9f"/>
  <circle cx="258" cy="168" r="8" fill="#f9d56d"/>
  <circle cx="286" cy="168" r="8" fill="#75ddb3"/>
  <rect x="248" y="244" width="360" height="32" rx="16" fill="#22a7df"/>
  <rect x="248" y="302" width="270" height="18" rx="9" fill="#9aaeb7"/>
  <rect x="248" y="338" width="392" height="18" rx="9" fill="#c2d0d6"/>
  <rect x="696" y="242" width="210" height="220" rx="18" fill="#eaf3f7"/>
  <rect x="724" y="276" width="154" height="18" rx="9" fill="#22a7df"/>
  <rect x="724" y="326" width="124" height="14" rx="7" fill="#90a8b4"/>
  <rect x="724" y="356" width="144" height="14" rx="7" fill="#c2d0d6"/>
  <rect x="248" y="430" width="146" height="70" rx="16" fill="#eef6f8"/>
  <rect x="420" y="430" width="146" height="70" rx="16" fill="#eef6f8"/>
  <rect x="592" y="430" width="146" height="70" rx="16" fill="#eef6f8"/>
  <path d="M260 552h680" stroke="#bcc9cf" stroke-width="20" stroke-linecap="round"/>
</svg>
