<svg xmlns="http://www.w3.org/2000/svg" width="1600" height="900" viewBox="0 0 1600 900" role="img" aria-labelledby="title description">
  <title id="title">Case study image placeholder</title>
  <desc id="description">A neutral interface composition marking an optional project image position.</desc>
  <defs>
    <linearGradient id="background" x1="0" y1="0" x2="1" y2="1">
      <stop offset="0" stop-color="#263d43"/>
      <stop offset="0.5" stop-color="#343b4a"/>
      <stop offset="1" stop-color="#493347"/>
    </linearGradient>
    <linearGradient id="accent" x1="0" y1="0" x2="1" y2="0">
      <stop offset="0" stop-color="#5cdbd3"/>
      <stop offset="1" stop-color="#d857a3"/>
    </linearGradient>
  </defs>
  <rect width="1600" height="900" rx="48" fill="url(#background)"/>
  <rect x="108" y="108" width="1384" height="684" rx="34" fill="#17252c" fill-opacity="0.52" stroke="#f4f9fa" stroke-opacity="0.16" stroke-width="2"/>
  <rect x="180" y="190" width="520" height="38" rx="19" fill="#f4f9fa" fill-opacity="0.18"/>
  <rect x="180" y="260" width="370" height="24" rx="12" fill="#f4f9fa" fill-opacity="0.1"/>
  <rect x="180" y="306" width="450" height="24" rx="12" fill="#f4f9fa" fill-opacity="0.1"/>
  <rect x="180" y="386" width="500" height="300" rx="26" fill="#0f1c23" fill-opacity="0.7"/>
  <rect x="742" y="190" width="678" height="496" rx="26" fill="#0f1c23" fill-opacity="0.7"/>
  <rect x="800" y="252" width="270" height="22" rx="11" fill="#f4f9fa" fill-opacity="0.16"/>
  <rect x="800" y="306" width="550" height="106" rx="20" fill="#f4f9fa" fill-opacity="0.06"/>
  <rect x="800" y="446" width="254" height="176" rx="20" fill="#f4f9fa" fill-opacity="0.06"/>
  <rect x="1080" y="446" width="270" height="176" rx="20" fill="#f4f9fa" fill-opacity="0.06"/>
  <rect x="180" y="748" width="1240" height="6" rx="3" fill="url(#accent)" fill-opacity="0.75"/>
</svg>
