<svg xmlns="http://www.w3.org/2000/svg" viewBox="0 0 1200 800" role="img" aria-labelledby="title desc">
  <title id="title">Healthcare workflow dashboard mockup</title>
  <desc id="desc">A dark clinical operations dashboard with queues, charts, and a mobile companion screen.</desc>
  <defs>
    <linearGradient id="bg" x1="0" x2="1" y1="0" y2="1">
      <stop stop-color="#10282d"/>
      <stop offset=".55" stop-color="#1e5166"/>
      <stop offset="1" stop-color="#6b2d60"/>
    </linearGradient>
    <linearGradient id="accent" x1="0" x2="1">
      <stop stop-color="#58dbe8"/>
      <stop offset="1" stop-color="#d65aaf"/>
    </linearGradient>
  </defs>
  <rect width="1200" height="800" rx="28" fill="url(#bg)"/>
  <rect x="112" y="96" width="760" height="500" rx="24" fill="#f7fbfb"/>
  <rect x="112" y="96" width="760" height="62" rx="24" fill="#0e74ce"/>
  <rect x="144" y="190" width="150" height="338" rx="16" fill="#dce8ee"/>
  <rect x="326" y="190" width="500" height="64" rx="14" fill="#edf4f7"/>
  <rect x="326" y="282" width="225" height="198" rx="18" fill="#dfeef4"/>
  <rect x="584" y="282" width="242" height="198" rx="18" fill="#f2f7f9"/>
  <path d="M360 416c42-92 74-86 114-38 35 42 74 37 110-22 39-64 76-44 132-2" fill="none" stroke="url(#accent)" stroke-width="16" stroke-linecap="round"/>
  <g fill="#2a9bdc">
    <rect x="144" y="190" width="112" height="18" rx="9"/>
    <rect x="144" y="232" width="96" height="18" rx="9"/>
    <rect x="144" y="274" width="124" height="18" rx="9"/>
  </g>
  <rect x="772" y="300" width="184" height="356" rx="34" fill="#121719"/>
  <rect x="792" y="334" width="144" height="284" rx="18" fill="#0d78d5"/>
  <rect x="818" y="380" width="88" height="16" rx="8" fill="#b8f7ff"/>
  <rect x="818" y="428" width="68" height="12" rx="6" fill="#eaf9fb"/>
  <rect x="818" y="458" width="92" height="12" rx="6" fill="#eaf9fb"/>
</svg>
